{
    "asset" : {
        "generator" : "Khronos glTF Blender I/O v1.8.19",
        "version" : "2.0"
    },
    "scene" : 0,
    "scenes" : [
        {
            "name" : "Scene",
            "nodes" : [
                0
            ]
        }
    ],
    "nodes" : [
        {
            "mesh" : 0,
            "name" : "\u52a8\u7269_\u5154"
        }
    ],
    "materials" : [
        {
            "doubleSided" : true,
            "name" : "Mat3d66-792798-5-418",
            "pbrMetallicRoughness" : {
                "baseColorTexture" : {
                    "index" : 0
                },
                "metallicFactor" : 0,
                "roughnessFactor" : 0.9724410772323608
            }
        }
    ],
    "meshes" : [
        {
            "name" : "Obj3d66-792798-5-502",
            "primitives" : [
                {
                    "attributes" : {
                        "POSITION" : 0,
                        "NORMAL" : 1,
                        "TEXCOORD_0" : 2
                    },
                    "indices" : 3,
                    "material" : 0
                }
            ]
        }
    ],
    "textures" : [
        {
            "sampler" : 0,
            "source" : 0
        }
    ],
    "images" : [
        {
            "bufferView" : 4,
            "mimeType" : "image/jpeg",
            "name" : "3d66Model-792798-files-31"
        }
    ],
    "accessors" : [
        {
            "bufferView" : 0,
            "componentType" : 5126,
            "count" : 4790,
            "max" : [
                0.017636947333812714,
                0.05780854821205139,
                0.027425557374954224
            ],
            "min" : [
                -0.017636947333812714,
                -1.5643308870494366e-10,
                -0.027425557374954224
            ],
            "type" : "VEC3"
        },
        {
            "bufferView" : 1,
            "componentType" : 5126,
            "count" : 4790,
            "type" : "VEC3"
        },
        {
            "bufferView" : 2,
            "componentType" : 5126,
            "count" : 4790,
            "type" : "VEC2"
        },
        {
            "bufferView" : 3,
            "componentType" : 5123,
            "count" : 24726,
            "type" : "SCALAR"
        }
    ],
    "bufferViews" : [
        {
            "buffer" : 0,
            "byteLength" : 57480,
            "byteOffset" : 0
        },
        {
            "buffer" : 0,
            "byteLength" : 57480,
            "byteOffset" : 57480
        },
        {
            "buffer" : 0,
            "byteLength" : 38320,
            "byteOffset" : 114960
        },
        {
            "buffer" : 0,
            "byteLength" : 49452,
            "byteOffset" : 153280
        },
        {
            "buffer" : 0,
            "byteLength" : 202966,
            "byteOffset" : 202732
        }
    ],
    "samplers" : [
        {
            "magFilter" : 9729,
            "minFilter" : 9987
        }
    ],
    "buffers" : [
        {
            "byteLength" : 405700,
            "uri" : "data:application/octet-stream;base64,"
        }
    ]
}
