{
    "asset" : {
        "generator" : "Khronos glTF Blender I/O v1.8.19",
        "version" : "2.0"
    },
    "scene" : 0,
    "scenes" : [
        {
            "name" : "Scene",
            "nodes" : [
                0
            ]
        }
    ],
    "nodes" : [
        {
            "mesh" : 0,
            "name" : "\u82b1\u575b_\u8349\u576a16"
        }
    ],
    "materials" : [
        {
            "doubleSided" : true,
            "name" : "Mat3d66-4630627-22-5951.001",
            "pbrMetallicRoughness" : {
                "baseColorTexture" : {
                    "index" : 0
                },
                "metallicFactor" : 0,
                "roughnessFactor" : 0.858578622341156
            }
        },
        {
            "doubleSided" : true,
            "name" : "Mat3d66-4630627-21-9231.001",
            "pbrMetallicRoughness" : {
                "baseColorTexture" : {
                    "index" : 1
                },
                "metallicFactor" : 0,
                "roughnessFactor" : 0.858578622341156
            }
        }
    ],
    "meshes" : [
        {
            "name" : "\u7f51\u683c.030",
            "primitives" : [
                {
                    "attributes" : {
                        "POSITION" : 0,
                        "NORMAL" : 1,
                        "TEXCOORD_0" : 2,
                        "TEXCOORD_1" : 3
                    },
                    "indices" : 4,
                    "material" : 0
                },
                {
                    "attributes" : {
                        "POSITION" : 5,
                        "NORMAL" : 6,
                        "TEXCOORD_0" : 7,
                        "TEXCOORD_1" : 8
                    },
                    "indices" : 9,
                    "material" : 1
                }
            ]
        }
    ],
    "textures" : [
        {
            "sampler" : 0,
            "source" : 0
        },
        {
            "sampler" : 0,
            "source" : 1
        }
    ],
    "images" : [
        {
            "bufferView" : 5,
            "mimeType" : "image/jpeg",
            "name" : "Image_0"
        },
        {
            "bufferView" : 11,
            "mimeType" : "image/jpeg",
            "name" : "Image_1"
        }
    ],
    "accessors" : [
        {
            "bufferView" : 0,
            "componentType" : 5126,
            "count" : 789,
            "max" : [
                2.056396484375,
                0.23042666912078857,
                2.5052490234375
            ],
            "min" : [
                -2.05670166015625,
                2.658367156982422e-05,
                -2.5048828125
            ],
            "type" : "VEC3"
        },
        {
            "bufferView" : 1,
            "componentType" : 5126,
            "count" : 789,
            "type" : "VEC3"
        },
        {
            "bufferView" : 2,
            "componentType" : 5126,
            "count" : 789,
            "type" : "VEC2"
        },
        {
            "bufferView" : 3,
            "componentType" : 5126,
            "count" : 789,
            "type" : "VEC2"
        },
        {
            "bufferView" : 4,
            "componentType" : 5123,
            "count" : 1221,
            "type" : "SCALAR"
        },
        {
            "bufferView" : 6,
            "componentType" : 5126,
            "count" : 1661,
            "max" : [
                2.1365966796875,
                0.04608035087585449,
                2.57421875
            ],
            "min" : [
                -2.13665771484375,
                0,
                -2.57415771484375
            ],
            "type" : "VEC3"
        },
        {
            "bufferView" : 7,
            "componentType" : 5126,
            "count" : 1661,
            "type" : "VEC3"
        },
        {
            "bufferView" : 8,
            "componentType" : 5126,
            "count" : 1661,
            "type" : "VEC2"
        },
        {
            "bufferView" : 9,
            "componentType" : 5126,
            "count" : 1661,
            "type" : "VEC2"
        },
        {
            "bufferView" : 10,
            "componentType" : 5123,
            "count" : 2664,
            "type" : "SCALAR"
        }
    ],
    "bufferViews" : [
        {
            "buffer" : 0,
            "byteLength" : 9468,
            "byteOffset" : 0
        },
        {
            "buffer" : 0,
            "byteLength" : 9468,
            "byteOffset" : 9468
        },
        {
            "buffer" : 0,
            "byteLength" : 6312,
            "byteOffset" : 18936
        },
        {
            "buffer" : 0,
            "byteLength" : 6312,
            "byteOffset" : 25248
        },
        {
            "buffer" : 0,
            "byteLength" : 2442,
            "byteOffset" : 31560
        },
        {
            "buffer" : 0,
            "byteLength" : 21855,
            "byteOffset" : 34004
        },
        {
            "buffer" : 0,
            "byteLength" : 19932,
            "byteOffset" : 55860
        },
        {
            "buffer" : 0,
            "byteLength" : 19932,
            "byteOffset" : 75792
        },
        {
            "buffer" : 0,
            "byteLength" : 13288,
            "byteOffset" : 95724
        },
        {
            "buffer" : 0,
            "byteLength" : 13288,
            "byteOffset" : 109012
        },
        {
            "buffer" : 0,
            "byteLength" : 5328,
            "byteOffset" : 122300
        },
        {
            "buffer" : 0,
            "byteLength" : 1726,
            "byteOffset" : 127628
        }
    ],
    "samplers" : [
        {
            "magFilter" : 9729,
            "minFilter" : 9987
        }
    ],
    "buffers" : [
        {
            "byteLength" : 129356,
            "uri" : "data:application/octet-stream;base64,"
        }
    ]
}
