{
    "asset" : {
        "generator" : "Khronos glTF Blender I/O v1.8.19",
        "version" : "2.0"
    },
    "scene" : 0,
    "scenes" : [
        {
            "name" : "Scene",
            "nodes" : [
                0
            ]
        }
    ],
    "nodes" : [
        {
            "mesh" : 0,
            "name" : "\u82b1\u575b_\u8349\u576a08"
        }
    ],
    "materials" : [
        {
            "doubleSided" : true,
            "name" : "Mat3d66-4630627-25-2758.002",
            "pbrMetallicRoughness" : {
                "baseColorTexture" : {
                    "index" : 0
                },
                "metallicFactor" : 0,
                "roughnessFactor" : 0.858578622341156
            }
        },
        {
            "doubleSided" : true,
            "name" : "Mat3d66-4630627-26-5002.001",
            "pbrMetallicRoughness" : {
                "baseColorTexture" : {
                    "index" : 1
                },
                "roughnessFactor" : 0.858578622341156
            }
        }
    ],
    "meshes" : [
        {
            "name" : "\u7f51\u683c.043",
            "primitives" : [
                {
                    "attributes" : {
                        "POSITION" : 0,
                        "NORMAL" : 1,
                        "TEXCOORD_0" : 2,
                        "TEXCOORD_1" : 3
                    },
                    "indices" : 4,
                    "material" : 0
                },
                {
                    "attributes" : {
                        "POSITION" : 5,
                        "NORMAL" : 6,
                        "TEXCOORD_0" : 7,
                        "TEXCOORD_1" : 8
                    },
                    "indices" : 9,
                    "material" : 1
                }
            ]
        }
    ],
    "textures" : [
        {
            "sampler" : 0,
            "source" : 0
        },
        {
            "sampler" : 0,
            "source" : 1
        }
    ],
    "images" : [
        {
            "bufferView" : 5,
            "mimeType" : "image/jpeg",
            "name" : "Image_0"
        },
        {
            "bufferView" : 11,
            "mimeType" : "image/jpeg",
            "name" : "Image_1"
        }
    ],
    "accessors" : [
        {
            "bufferView" : 0,
            "componentType" : 5126,
            "count" : 1302,
            "max" : [
                2.9125211238861084,
                0.4780452251434326,
                1.4078105688095093
            ],
            "min" : [
                -2.9125211238861084,
                0.11804507672786713,
                -1.4078105688095093
            ],
            "type" : "VEC3"
        },
        {
            "bufferView" : 1,
            "componentType" : 5126,
            "count" : 1302,
            "type" : "VEC3"
        },
        {
            "bufferView" : 2,
            "componentType" : 5126,
            "count" : 1302,
            "type" : "VEC2"
        },
        {
            "bufferView" : 3,
            "componentType" : 5126,
            "count" : 1302,
            "type" : "VEC2"
        },
        {
            "bufferView" : 4,
            "componentType" : 5123,
            "count" : 1368,
            "type" : "SCALAR"
        },
        {
            "bufferView" : 6,
            "componentType" : 5126,
            "count" : 2886,
            "max" : [
                1.0599186420440674,
                1.538049340248108,
                0.44882750511169434
            ],
            "min" : [
                -1.2565956115722656,
                -7.450580596923828e-09,
                -0.33922791481018066
            ],
            "type" : "VEC3"
        },
        {
            "bufferView" : 7,
            "componentType" : 5126,
            "count" : 2886,
            "type" : "VEC3"
        },
        {
            "bufferView" : 8,
            "componentType" : 5126,
            "count" : 2886,
            "type" : "VEC2"
        },
        {
            "bufferView" : 9,
            "componentType" : 5126,
            "count" : 2886,
            "type" : "VEC2"
        },
        {
            "bufferView" : 10,
            "componentType" : 5123,
            "count" : 3000,
            "type" : "SCALAR"
        }
    ],
    "bufferViews" : [
        {
            "buffer" : 0,
            "byteLength" : 15624,
            "byteOffset" : 0
        },
        {
            "buffer" : 0,
            "byteLength" : 15624,
            "byteOffset" : 15624
        },
        {
            "buffer" : 0,
            "byteLength" : 10416,
            "byteOffset" : 31248
        },
        {
            "buffer" : 0,
            "byteLength" : 10416,
            "byteOffset" : 41664
        },
        {
            "buffer" : 0,
            "byteLength" : 2736,
            "byteOffset" : 52080
        },
        {
            "buffer" : 0,
            "byteLength" : 20757,
            "byteOffset" : 54816
        },
        {
            "buffer" : 0,
            "byteLength" : 34632,
            "byteOffset" : 75576
        },
        {
            "buffer" : 0,
            "byteLength" : 34632,
            "byteOffset" : 110208
        },
        {
            "buffer" : 0,
            "byteLength" : 23088,
            "byteOffset" : 144840
        },
        {
            "buffer" : 0,
            "byteLength" : 23088,
            "byteOffset" : 167928
        },
        {
            "buffer" : 0,
            "byteLength" : 6000,
            "byteOffset" : 191016
        },
        {
            "buffer" : 0,
            "byteLength" : 447398,
            "byteOffset" : 197016
        }
    ],
    "samplers" : [
        {
            "magFilter" : 9729,
            "minFilter" : 9987
        }
    ],
    "buffers" : [
        {
            "byteLength" : 644416,
            "uri" : "data:application/octet-stream;base64,"
        }
    ]
}
